<svg width="28" height="29" viewBox="0 0 28 29" fill="none" xmlns="http://www.w3.org/2000/svg">
<path d="M27.6796 23.2872L19.2796 14.8872L22.593 11.5739L22.5931 11.5738L24.553 9.61386L24.5531 9.6138L27.3997 6.76721C28.193 5.97386 28.193 4.66721 27.3997 3.87386L25.0197 1.49386C24.6464 1.12056 24.133 0.887207 23.573 0.887207C23.013 0.887207 22.4996 1.12056 22.1264 1.49386L19.2797 4.3405L17.3197 6.3005L14.0064 9.61386L5.69965 1.30721C5.18629 0.793855 4.253 0.793855 3.73965 1.30721L0.426348 4.62056C-0.133652 5.13391 -0.133652 6.02056 0.426348 6.58056L1.40635 7.56056L4.06635 10.2206L6.67965 12.8339C6.67965 12.8339 6.67965 12.8339 6.6797 12.8339L8.733 14.8872L1.24157 22.3786C1.1019 22.4403 1.0266 22.5662 0.986348 22.7272L0.00634766 28.3272C0.00634766 28.5139 0.0529961 28.6539 0.146348 28.7472C0.239645 28.8406 0.332996 28.8872 0.472996 28.8872C0.519645 28.8872 0.519645 28.8872 0.566348 28.8872L5.95006 27.8919C5.9873 27.9017 6.0275 27.9072 6.073 27.9072C6.213 27.9072 6.353 27.8606 6.39965 27.7672L14.0063 20.1606L14.6129 20.7672C14.6129 20.7672 14.6129 20.7672 14.613 20.7673L14.6131 20.7673L15.9196 22.0739C15.9196 22.0739 15.9196 22.0739 15.9197 22.074L15.9198 22.074L22.4064 28.5606C22.6397 28.794 22.9197 28.8873 23.1997 28.8873C23.4797 28.8873 23.7597 28.7939 23.9464 28.5606L27.6797 24.8273C28.0997 24.4072 28.0996 23.7072 27.6796 23.2872ZM6.073 26.7406L4.44014 25.1077L19.9559 9.63671L21.5664 11.2472L6.073 26.7406ZM22.7796 2.14721C23.1996 1.72721 23.9463 1.72721 24.3663 2.14721L26.7463 4.52721C27.1663 4.94721 27.1663 5.69386 26.7463 6.11386L24.2263 8.63386L20.2596 4.66721L22.7796 2.14721ZM19.6064 5.32056L21.5897 7.30391L23.573 9.28721L22.2664 10.5939L18.2997 6.62721L19.6064 5.32056ZM8.98965 13.8372L9.993 12.8339C10.1796 12.6472 10.1796 12.3672 9.993 12.1805C9.80635 11.9938 9.52635 11.9939 9.33965 12.1805L8.3363 13.1839L7.65965 12.5072L9.293 10.8739C9.47965 10.6872 9.47965 10.4072 9.293 10.2205C9.10635 10.0338 8.82635 10.0339 8.63965 10.2205L7.00629 11.8539L6.35294 11.2005L7.33294 10.2205C7.51959 10.0339 7.51959 9.75385 7.33294 9.56715C7.14629 9.38045 6.86629 9.3805 6.67959 9.56715L5.69959 10.5472L5.04624 9.8938L6.67959 8.26045C6.86624 8.0738 6.86624 7.7938 6.67959 7.6071C6.49294 7.42039 6.21294 7.42045 6.02624 7.6071L4.393 9.24056L3.693 8.54056L4.673 7.56056C4.85965 7.37391 4.85965 7.09391 4.673 6.90721C4.48635 6.7205 4.20635 6.72056 4.01965 6.90721L3.03965 7.88721L2.38629 7.23386L4.01965 5.6005C4.20629 5.41386 4.20629 5.13386 4.01965 4.94715C3.833 4.76045 3.553 4.7605 3.36629 4.94715L1.733 6.58056L1.07964 5.92721C0.892996 5.74056 0.892996 5.46056 1.07964 5.27386L4.393 1.96056C4.48635 1.86721 4.57965 1.82056 4.71965 1.82056C4.813 1.82056 4.953 1.86721 5.04629 1.96056L13.353 10.2672L9.38635 14.2339L8.98965 13.8372ZM17.6464 7.32721L19.2792 8.96007L3.76349 24.431L2.153 22.8206L17.6464 7.32721ZM1.77965 23.7539L3.31068 25.2849C3.33397 25.3382 3.36793 25.3888 3.413 25.4339L5.09989 27.1207L1.0797 27.8138L1.77965 23.7539ZM27.0264 24.1739L23.293 27.9072C23.2464 27.9539 23.1064 27.9539 23.0597 27.9072L18.2296 23.0772L19.8863 21.4206C20.0729 21.2339 20.0729 20.9539 19.8863 20.7672C19.6996 20.5806 19.4196 20.5806 19.2329 20.7672L17.5763 22.4239L16.8996 21.7472L17.8797 20.7672C18.0663 20.5806 18.0663 20.3006 17.8797 20.1139C17.693 19.9272 17.413 19.9272 17.2263 20.1139L16.2463 21.0939L15.5929 20.4405L17.2263 18.8072C17.4129 18.6205 17.4129 18.3405 17.2263 18.1538C17.0396 17.9672 16.7596 17.9672 16.5729 18.1538L14.9396 19.7872L14.6596 19.5072L18.6263 15.5406L27.0263 23.9406C27.073 23.9872 27.073 24.1272 27.0264 24.1739Z" fill="#E3B873"/>
</svg>
